<svg xmlns="http://www.w3.org/2000/svg" width="833" height="833" fill="none"><path fill="#1B3E67" fill-rule="evenodd" d="m511.943 39.534 281.523 281.523c52.712 52.712 52.712 138.174 0 190.886L511.943 793.466c-52.712 52.712-138.174 52.712-190.886 0L39.534 511.943c-52.712-52.712-52.712-138.174 0-190.886L321.057 39.534c52.712-52.712 138.174-52.712 190.886 0Z" clip-rule="evenodd"/><path fill="#EDEEEF" d="M403.069 168.123a178.685 178.685 0 0 0-152.77 179.339v272.472a14.333 14.333 0 0 0 8.779 13.215 14.327 14.327 0 0 0 15.584-2.98l119.027-116.934c45.936 8.346 97.452 1.732 153.22-54.508a169.358 169.358 0 0 0 52.618-127.71 174.872 174.872 0 0 0-62.929-124.02 174.866 174.866 0 0 0-133.529-38.874m22.002 289.232a115.855 115.855 0 1 1 0-231.709 115.854 115.854 0 0 1 0 231.709"/></svg>